<?xml version="1.0" standalone="no"?>
<!DOCTYPE svg PUBLIC "-//W3C//DTD SVG 20010904//EN"
 "http://www.w3.org/TR/2001/REC-SVG-20010904/DTD/svg10.dtd">
<svg version="1.0" xmlns="http://www.w3.org/2000/svg"
 width="501.000000pt" height="501.000000pt" viewBox="0 0 501.000000 501.000000"
 preserveAspectRatio="xMidYMid meet">
<metadata>
Created by potrace 1.14, written by Peter Selinger 2001-2017
</metadata>
<g transform="translate(0.000000,501.000000) scale(0.100000,-0.100000)"
fill="#000000" stroke="none">
<path d="M2305 4894 c-351 -40 -589 -106 -874 -246 -310 -152 -590 -377 -812
-653 -576 -716 -686 -1711 -281 -2546 146 -302 387 -604 648 -815 260 -209
594 -377 903 -454 229 -58 354 -73 601 -74 225 0 282 5 488 45 356 68 706 230
1012 467 107 83 295 271 384 382 346 437 530 964 525 1510 -6 646 -248 1229
-699 1680 -374 376 -827 604 -1360 685 -102 16 -453 28 -535 19z m368 -274
c537 -45 1048 -298 1410 -700 196 -218 347 -479 441 -765 76 -234 101 -395
100 -665 -1 -164 -5 -230 -23 -331 -61 -352 -198 -670 -409 -949 -129 -170
-348 -373 -532 -493 -71 -46 -318 -177 -333 -177 -3 0 -10 13 -15 30 l-11 29
102 49 c215 103 375 218 562 406 304 305 490 667 571 1111 21 117 30 442 15
561 -63 486 -255 888 -586 1220 -244 246 -496 402 -820 509 -380 126 -775 140
-1164 41 -735 -189 -1298 -757 -1487 -1502 -56 -221 -75 -462 -54 -675 63
-636 390 -1183 918 -1538 101 -68 290 -165 390 -201 56 -21 62 -25 62 -51 0
-15 -4 -30 -9 -34 -15 -9 -247 95 -369 164 -282 162 -544 408 -717 676 -184
285 -297 600 -336 934 -15 137 -7 455 16 581 107 596 429 1089 930 1427 82 55
273 155 370 193 329 130 641 178 978 150z m-281 -474 c-4 -97 7 -116 67 -116
65 0 74 14 70 113 l-4 87 30 0 30 0 -3 -100 c-3 -93 -5 -101 -29 -120 -21 -16
-41 -20 -99 -20 -108 0 -116 12 -127 183 l-4 57 36 0 36 0 -3 -84z m418 63
c87 -14 110 -30 110 -74 0 -37 -28 -75 -56 -75 -12 0 -9 -11 15 -56 l30 -56
-31 6 c-17 3 -37 6 -44 6 -7 0 -11 6 -9 13 3 6 -5 30 -18 52 -16 29 -30 41
-49 43 -24 3 -28 -1 -33 -32 -4 -19 -4 -40 0 -46 5 -8 -5 -10 -31 -8 -29 2
-38 7 -35 18 11 49 29 204 24 217 -5 11 1 13 28 9 19 -3 63 -11 99 -17z m-590
-29 c28 -28 26 -74 -5 -98 l-25 -20 46 -41 46 -40 -29 -6 c-15 -4 -34 -8 -41
-11 -7 -2 -17 7 -22 20 -14 37 -58 67 -89 59 -36 -8 -35 -7 -19 -58 14 -41 14
-45 -1 -45 -9 0 -27 -3 -40 -7 -20 -5 -23 -3 -18 10 5 14 -23 172 -38 209 -5
13 4 18 52 28 32 6 63 13 68 15 33 12 97 3 115 -15z m923 -45 c43 -14 87 -25
97 -25 22 0 25 -12 9 -41 -7 -14 -14 -17 -22 -11 -7 6 -42 19 -79 30 -68 20
-78 18 -78 -19 0 -12 47 -30 82 -31 25 -1 27 -4 21 -27 -9 -40 -10 -40 -50
-20 -48 25 -70 24 -78 -2 -9 -27 1 -33 87 -55 65 -17 74 -25 63 -56 -5 -12
-26 -8 -108 19 -56 18 -107 35 -114 37 -9 4 -9 12 2 33 8 16 25 65 37 111 16
56 28 82 38 82 8 0 50 -11 93 -25z m-1266 -30 c32 -22 38 -63 14 -96 l-20 -27
44 -29 c25 -15 45 -31 45 -34 0 -4 -14 -12 -30 -19 -26 -11 -33 -10 -43 2 -7
8 -26 25 -44 37 -25 17 -36 19 -57 11 -30 -11 -32 -20 -10 -62 17 -33 12 -43
-27 -53 -19 -5 -26 -2 -26 8 0 23 -65 191 -77 199 -11 7 4 14 114 54 77 28 89
29 117 9z m1562 -85 c78 -39 111 -69 111 -101 0 -27 -39 -69 -66 -69 -20 0
-24 -5 -24 -29 0 -16 4 -41 10 -55 11 -30 0 -33 -39 -12 -18 10 -24 23 -27 62
-2 35 -10 54 -25 67 -30 24 -37 22 -56 -20 -10 -21 -19 -40 -20 -42 -1 -2 -16
2 -33 9 -30 12 -38 25 -21 32 12 4 91 164 91 183 0 22 12 19 99 -25z m-1861
-54 c-2 -1 -25 -12 -53 -24 -27 -13 -60 -31 -73 -40 -20 -15 -21 -20 -9 -36
14 -19 15 -19 53 4 21 13 42 28 45 33 4 5 14 -1 23 -14 20 -30 20 -39 0 -39
-19 0 -84 -38 -84 -49 0 -4 6 -15 13 -25 12 -17 17 -15 77 20 36 21 67 41 68
46 7 15 19 8 30 -17 15 -32 15 -35 0 -35 -7 0 -53 -23 -102 -50 -49 -28 -90
-49 -91 -48 -22 35 -115 201 -115 206 0 4 41 29 90 55 49 26 92 53 96 59 4 7
13 0 21 -16 8 -15 13 -29 11 -30z m2120 -94 c10 -7 -2 -30 -48 -97 -33 -49
-60 -95 -60 -102 0 -17 -6 -16 -41 4 -29 17 -38 33 -19 33 11 0 120 164 120
181 0 9 14 4 48 -19z m-2406 -77 c6 -30 2 -35 -34 -35 -36 0 -94 -50 -85 -74
6 -15 14 -13 72 19 75 42 112 43 134 4 29 -51 -15 -121 -102 -163 -57 -27 -67
-26 -67 8 0 19 7 25 35 30 55 11 127 96 81 96 -8 0 -41 -16 -73 -35 -67 -41
-81 -42 -111 -15 -36 34 -24 94 28 138 19 16 91 51 106 52 7 0 14 -11 16 -25z
m1799 -164 c305 -104 580 -198 612 -209 32 -11 63 -24 69 -30 32 -32 25 -431
-12 -662 -29 -175 -102 -460 -119 -460 -3 0 -17 35 -29 78 -30 96 -98 235
-159 321 -56 79 -218 248 -275 287 -62 43 -29 40 64 -7 114 -57 182 -105 258
-183 36 -36 68 -66 71 -66 3 0 11 30 17 68 32 184 43 481 20 499 -7 6 -256 92
-553 193 l-540 183 -105 -36 c-58 -19 -301 -102 -540 -182 -239 -81 -441 -152
-447 -158 -9 -7 -13 -48 -13 -141 0 -319 49 -459 224 -644 38 -40 99 -95 134
-122 65 -48 240 -146 247 -138 3 2 -8 38 -23 79 -24 65 -27 88 -26 189 0 95 4
125 22 171 54 136 158 256 274 313 93 47 161 59 293 53 122 -5 193 -25 325
-92 210 -106 400 -292 502 -491 72 -143 83 -188 83 -349 0 -131 -2 -144 -29
-210 -42 -101 -111 -196 -228 -313 -178 -177 -371 -306 -586 -392 l-103 -41
-51 17 c-80 26 -194 81 -293 139 -309 183 -541 439 -706 779 -33 67 -59 125
-59 129 0 5 26 -13 57 -41 184 -159 391 -273 633 -348 l105 -33 -72 0 c-40 -1
-118 4 -173 10 -56 6 -104 8 -108 5 -11 -12 209 -218 298 -281 103 -72 324
-185 362 -185 41 0 203 79 316 153 120 80 227 171 313 268 131 148 159 208
159 343 0 97 -17 167 -65 264 -35 69 -148 222 -165 222 -4 0 -6 -26 -3 -58 12
-131 -46 -303 -137 -405 -54 -61 -142 -121 -228 -155 -62 -24 -79 -26 -212
-26 -122 0 -163 4 -257 26 -214 51 -415 147 -586 282 -190 148 -304 306 -372
516 -27 82 -28 94 -33 345 -4 243 -3 262 14 282 13 14 86 43 219 87 110 36
382 129 605 206 223 76 417 139 431 140 14 0 275 -85 580 -189z m788 105 c42
-34 82 -65 89 -67 11 -4 9 -10 -6 -29 l-20 -25 -18 22 c-11 12 -39 38 -64 57
-33 26 -48 32 -57 24 -7 -6 -13 -16 -13 -22 0 -14 64 -66 81 -66 7 0 3 -10 -9
-23 l-22 -24 -42 39 -42 39 -18 -23 c-17 -23 -17 -24 30 -65 26 -23 55 -45 65
-48 21 -8 21 -15 3 -40 -13 -18 -19 -14 -103 56 l-89 74 76 92 c41 51 77 93
79 93 1 0 37 -29 80 -64z m-14 -2206 c17 -19 16 -20 -14 -46 -17 -14 -31 -31
-31 -38 0 -6 30 -40 66 -75 l66 -63 -21 -21 -21 -21 -71 69 -70 70 -31 -34
c-30 -33 -30 -33 -49 -14 -19 19 -18 20 63 104 46 47 86 87 89 87 3 1 14 -7
24 -18z m-2549 -198 c21 -16 51 -45 67 -65 l27 -36 -30 -16 c-29 -15 -30 -15
-30 6 0 11 -13 33 -29 49 -52 52 -119 52 -146 -1 -25 -48 3 -103 67 -130 46
-19 56 2 17 35 -29 25 -31 29 -17 43 14 14 18 13 35 -3 10 -11 33 -31 51 -45
l34 -26 -26 -17 c-14 -9 -26 -23 -26 -31 0 -26 -55 -17 -106 18 -66 45 -89 79
-89 134 0 39 5 49 37 79 50 45 107 47 164 6z m2342 6 c15 -15 16 -38 2 -38
-14 0 -120 -80 -120 -90 0 -4 7 -13 15 -20 11 -9 20 -8 44 10 17 11 35 29 40
38 8 15 11 14 30 -8 25 -30 26 -40 5 -40 -8 0 -31 -12 -49 -26 -33 -25 -34
-27 -18 -50 l15 -24 52 36 c28 21 59 46 69 57 17 20 18 20 32 1 17 -22 19 -44
5 -44 -5 0 -47 -27 -92 -60 -83 -61 -98 -69 -98 -49 0 11 -107 160 -124 172
-7 5 0 15 19 30 17 12 57 43 90 69 68 53 67 52 83 36z m-2151 -146 l23 -17
-40 -77 c-47 -89 -45 -104 19 -133 33 -14 43 -15 56 -5 18 15 75 119 75 137 0
16 18 16 49 -1 16 -9 20 -16 12 -20 -6 -4 -24 -33 -40 -64 -44 -87 -63 -106
-103 -105 -39 1 -101 30 -135 63 -33 30 -29 72 12 147 19 35 35 70 35 78 0 19
10 19 37 -3z m1942 -116 c35 -65 38 -91 15 -124 -21 -31 -106 -72 -147 -72
-40 0 -55 14 -92 90 -15 30 -34 63 -42 72 -13 15 -12 18 17 33 18 9 33 15 33
13 1 -2 19 -38 39 -80 35 -72 40 -78 68 -78 19 0 42 11 62 29 l32 28 -35 72
c-19 39 -37 71 -41 71 -18 0 -6 20 20 34 25 13 27 13 33 -7 4 -12 21 -48 38
-81z m-1666 -21 c25 -10 35 -20 31 -30 -7 -17 14 -85 26 -85 5 0 25 15 45 34
33 31 38 33 65 23 30 -11 41 -27 19 -27 -6 0 -38 -19 -70 -42 -58 -43 -98
-105 -83 -130 8 -12 -45 -2 -58 10 -4 4 0 27 9 52 15 43 15 48 -6 115 -12 39
-25 76 -27 83 -7 16 6 15 49 -3z m1335 -72 c14 -10 31 -36 38 -57 12 -32 11
-43 -1 -73 -14 -33 -14 -35 5 -40 24 -6 25 -12 5 -41 -15 -21 -17 -21 -41 -5
-20 13 -30 14 -50 4 -14 -6 -49 -11 -79 -11 -74 0 -115 34 -122 102 -5 41 -2
49 31 85 19 22 50 45 68 51 45 15 115 8 146 -15z m-893 -46 c4 -16 50 -124 55
-131 9 -9 80 91 80 113 0 9 7 11 23 7 12 -3 32 -6 43 -6 20 0 21 -3 14 -37 -5
-21 -11 -75 -15 -120 -7 -82 -7 -83 -35 -83 l-27 0 5 78 4 77 -43 -67 c-24
-38 -48 -68 -54 -68 -5 0 -23 32 -39 72 -33 80 -44 75 -45 -19 -1 -52 -1 -53
-32 -53 -27 0 -30 3 -26 23 3 12 9 69 13 125 l7 104 36 -7 c20 -4 36 -8 36 -8z
m512 -16 c102 -47 94 -176 -12 -217 -88 -33 -176 -3 -204 69 -24 64 10 126 84
152 54 19 82 18 132 -4z m393 -330 c0 -12 -11 -23 -27 -29 l-28 -10 28 -1 c27
-1 67 -31 67 -51 0 -18 -50 -62 -66 -58 -28 6 -19 23 14 26 53 5 32 42 -25 42
-35 0 -36 1 -27 48 6 28 17 37 62 51 1 1 2 -8 2 -18z m-1070 -50 c35 -25 39
-82 9 -112 -18 -18 -29 -20 -66 -15 -57 7 -65 13 -54 34 17 31 32 102 25 114
-11 17 56 1 86 -21z m962 2 c10 -9 18 -30 18 -48 0 -33 -32 -85 -53 -85 -8 0
-7 4 1 12 18 18 15 48 -6 48 -24 0 -42 19 -42 45 0 43 47 60 82 28z m-817 -18
c88 -12 123 -24 130 -46 8 -26 -11 -49 -41 -49 -23 0 -41 -30 -29 -50 8 -13
-32 -13 -112 1 -52 9 -62 14 -52 25 6 8 12 41 13 74 1 55 3 60 21 56 11 -2 43
-8 70 -11z m697 -2 c21 -19 24 -79 5 -104 -7 -9 -23 -22 -37 -29 -24 -13 -25
-12 -7 7 23 26 22 41 -5 45 -33 5 -47 51 -23 78 22 24 42 25 67 3z m-127 -65
c4 -35 12 -69 17 -75 8 -10 3 -13 -18 -13 -28 0 -29 2 -32 52 -2 29 -8 58 -13
64 -7 9 -5 16 8 23 29 17 31 14 38 -51z m-380 -21 c0 -59 1 -62 25 -62 23 0
26 5 31 50 3 28 2 56 -4 63 -7 9 3 12 44 12 l54 0 -2 -67 c-1 -38 1 -60 3 -50
7 21 20 22 28 2 6 -17 56 -21 56 -5 0 6 -16 20 -35 31 -45 27 -55 57 -25 81
13 11 30 16 37 13 8 -3 21 -5 29 -5 8 0 14 -10 14 -22 0 -20 -1 -20 -18 -5
-21 19 -52 23 -52 7 0 -6 16 -20 35 -31 42 -25 53 -54 30 -79 -13 -14 -32 -18
-83 -19 l-67 0 3 69 c3 56 1 70 -11 70 -10 0 -16 -15 -19 -54 -5 -64 -20 -86
-59 -86 -40 0 -59 32 -59 101 0 53 1 56 23 52 20 -4 22 -10 22 -66z"/>
<path d="M2740 4142 c0 -29 2 -30 51 -37 40 -6 55 -4 67 9 15 15 15 17 0 32
-9 9 -39 19 -67 22 l-51 5 0 -31z"/>
<path d="M2067 4143 c-14 -4 -17 -11 -13 -26 3 -12 6 -26 6 -30 0 -10 77 1
103 15 9 5 17 18 17 28 0 17 -7 20 -47 19 -27 -1 -56 -3 -66 -6z"/>
<path d="M1767 4053 c-41 -14 -46 -19 -41 -37 11 -35 19 -38 70 -19 50 19 69
47 42 64 -16 11 -13 11 -71 -8z"/>
<path d="M3371 3968 c-11 -28 5 -43 62 -60 72 -22 78 26 8 62 -51 25 -60 25
-70 -2z"/>
<path d="M2419 2751 c-52 -32 -79 -85 -79 -152 0 -50 19 -87 64 -127 20 -17
36 -38 36 -45 0 -8 -22 -60 -50 -116 -27 -56 -50 -108 -50 -116 0 -13 28 -15
175 -15 147 0 175 2 175 15 0 8 -22 60 -50 116 -27 56 -50 109 -50 118 0 9 13
25 29 36 41 27 71 84 71 136 0 143 -151 227 -271 150z"/>
<path d="M2981 947 c-13 -6 -33 -25 -45 -40 -19 -26 -19 -30 -6 -55 22 -38 60
-57 96 -47 l29 8 -29 12 c-29 12 -29 13 -8 24 11 6 36 10 54 9 29 -3 33 0 36
24 7 58 -67 96 -127 65z"/>
<path d="M2615 878 c-79 -43 -48 -138 45 -138 81 0 122 83 64 129 -29 23 -77
27 -109 9z"/>
<path d="M2017 533 c-2 -4 -7 -21 -11 -38 -4 -16 -9 -38 -12 -47 -8 -26 32
-23 46 2 14 26 9 82 -7 87 -6 2 -13 0 -16 -4z"/>
<path d="M2970 538 c0 -23 11 -48 21 -48 14 0 11 24 -6 46 -12 16 -14 17 -15
2z"/>
<path d="M2166 513 c-3 -3 -6 -15 -6 -26 0 -13 5 -17 15 -13 11 4 15 -1 15
-18 0 -31 -11 -39 -26 -18 -12 15 -13 14 -14 -15 0 -38 16 -43 55 -17 19 12
25 25 25 51 0 20 -4 32 -10 28 -5 -3 -10 -2 -10 4 0 13 -35 32 -44 24z"/>
<path d="M2277 493 c-11 -10 -8 -43 3 -43 15 0 24 30 13 41 -5 5 -12 6 -16 2z"/>
<path d="M2855 498 c4 -13 11 -27 16 -32 15 -16 20 0 10 28 -13 32 -35 36 -26
4z"/>
</g>
</svg>
