<svg width="61" height="61" viewBox="0 0 61 61" fill="none" xmlns="http://www.w3.org/2000/svg">
<path d="M33.3351 13.0772L33.4709 13.651L33.7948 13.1583L40.5543 2.876L39.1231 15.0976L39.0545 15.6832L39.5273 15.331L49.3959 7.98072L43.8709 18.9758L43.6062 19.5026L44.171 19.3334L55.9584 15.8016L47.0061 24.2439L46.5772 24.6484L47.1658 24.6825L59.4502 25.3953L48.1504 30.2666L47.609 30.5L48.1504 30.7334L59.4502 35.6047L47.1658 36.3175L46.5772 36.3516L47.0061 36.7561L55.9584 45.1984L44.171 41.6666L43.6062 41.4974L43.8709 42.0242L49.3959 53.0193L39.5273 45.669L39.0545 45.3168L39.1231 45.9024L40.5543 58.124L33.7948 47.8417L33.4709 47.349L33.3351 47.9228L30.5 59.8968L27.6649 47.9228L27.5291 47.349L27.2052 47.8417L20.4457 58.124L21.8769 45.9024L21.9455 45.3168L21.4727 45.669L11.6041 53.0193L17.1291 42.0242L17.3938 41.4974L16.829 41.6666L5.04159 45.1984L13.9939 36.7561L14.4228 36.3516L13.8342 36.3175L1.54976 35.6047L12.8496 30.7334L13.391 30.5L12.8496 30.2666L1.54976 25.3953L13.8342 24.6825L14.4228 24.6484L13.9939 24.2439L5.04159 15.8016L16.829 19.3334L17.3938 19.5026L17.1291 18.9758L11.6041 7.98071L21.4727 15.331L21.9455 15.6832L21.8769 15.0976L20.4457 2.876L27.2052 13.1583L27.5291 13.651L27.6649 13.0772L30.5 1.10315L33.3351 13.0772Z" fill="#F9CB5E" stroke="black" stroke-width="0.508333"/>
</svg>
