<svg width="60" height="60" viewBox="0 0 60 60" fill="none"
    xmlns="http://www.w3.org/2000/svg">
    <path d="M60 30C60 46.5685 46.5685 60 30 60C13.4315 60 0 46.5685 0 30C0 13.4315 13.4315 0 30 0C46.5685 0 60 13.4315 60 30Z" fill="black"/>
    <g clip-path="url(#clip0_103_1220)">
        <path d="M40 18H20C18.159 18 16.6666 19.3431 16.6666 21V39C16.6666 40.6569 18.159 42 20 42H40C41.8409 42 43.3333 40.6569 43.3333 39V21C43.3333 19.3431 41.8409 18 40 18Z" stroke="#FB8C49" stroke-width="3" stroke-linecap="round" stroke-linejoin="round"/>
        <path d="M23.3334 28.5V36" stroke="#FB8C49" stroke-width="3" stroke-linecap="round" stroke-linejoin="round"/>
        <path d="M23.3334 24V24.015" stroke="#FB8C49" stroke-width="3" stroke-linecap="round" stroke-linejoin="round"/>
        <path d="M30 36V28.5" stroke="#FB8C49" stroke-width="3" stroke-linecap="round" stroke-linejoin="round"/>
        <path d="M36.6667 36V31.5C36.6667 30.7044 36.3155 29.9413 35.6904 29.3787C35.0652 28.8161 34.2174 28.5 33.3333 28.5C32.4493 28.5 31.6014 28.8161 30.9763 29.3787C30.3512 29.9413 30 30.7044 30 31.5" stroke="#FB8C49" stroke-width="3" stroke-linecap="round" stroke-linejoin="round"/>
    </g>
    <defs>
        <clipPath id="clip0_103_1220">
            <rect width="40" height="36" fill="white" transform="translate(10 12)"/>
        </clipPath>
    </defs>
</svg>
