<svg width="60" height="60" viewBox="0 0 60 60" fill="none" xmlns="http://www.w3.org/2000/svg">
<path d="M60 30C60 46.5685 46.5685 60 30 60C13.4315 60 0 46.5685 0 30C0 13.4315 13.4315 0 30 0C46.5685 0 60 13.4315 60 30Z" fill="black"/>
<g clip-path="url(#clip0_501_578)">
<path d="M25 30.0001C23.6815 30.0001 22.3926 30.3911 21.2962 31.1236C20.1999 31.8562 19.3454 32.8974 18.8408 34.1155C18.3363 35.3337 18.2042 36.6741 18.4615 37.9673C18.7187 39.2606 19.3536 40.4484 20.286 41.3808C21.2183 42.3131 22.4062 42.9481 23.6994 43.2053C24.9926 43.4626 26.3331 43.3305 27.5513 42.8259C28.7694 42.3214 29.8106 41.4669 30.5432 40.3705C31.2757 39.2742 31.6667 37.9853 31.6667 36.6667V16.6667C31.6667 18.8769 32.5447 20.9965 34.1075 22.5593C35.6703 24.1221 37.7899 25.0001 40 25.0001" stroke="#FB8C49" stroke-width="3.66667" stroke-linecap="round" stroke-linejoin="round"/>
</g>
<defs>
<clipPath id="clip0_501_578">
<rect width="40" height="40" fill="white" transform="translate(10 10)"/>
</clipPath>
</defs>
</svg>
