<svg width="126" height="126" viewBox="0 0 126 126" fill="none"
    xmlns="http://www.w3.org/2000/svg">
    <circle cx="63" cy="63" r="63" fill="#0A0A0A"/>
    <g clip-path="url(#clip0_91_209)">
        <path d="M62.9999 37.5C69.6181 43.3553 78.2559 46.4039 87.0833 46C88.3684 50.3719 88.7617 54.9575 88.2396 59.4843C87.7176 64.0112 86.2908 68.3869 84.0442 72.3515C81.7977 76.3161 78.777 79.7886 75.1619 82.5627C71.5467 85.3368 67.4108 87.3559 62.9999 88.5C58.589 87.3559 54.4531 85.3368 50.838 82.5627C47.2228 79.7886 44.2022 76.3161 41.9556 72.3515C39.709 68.3869 38.2823 64.0112 37.7603 59.4843C37.2382 54.9575 37.6314 50.3719 38.9166 46C47.7439 46.4039 56.3817 43.3553 62.9999 37.5" stroke="#FB8C49" stroke-width="5.66667" stroke-linecap="round" stroke-linejoin="round"/>
        <path d="M63.0001 62.9999C64.5649 62.9999 65.8334 61.7314 65.8334 60.1666C65.8334 58.6018 64.5649 57.3333 63.0001 57.3333C61.4353 57.3333 60.1667 58.6018 60.1667 60.1666C60.1667 61.7314 61.4353 62.9999 63.0001 62.9999Z" stroke="#FB8C49" stroke-width="5.66667" stroke-linecap="round" stroke-linejoin="round"/>
        <path d="M63 63V70.0833" stroke="#FB8C49" stroke-width="5.66667" stroke-linecap="round" stroke-linejoin="round"/>
    </g>
    <defs>
        <clipPath id="clip0_91_209">
            <rect width="68" height="68" fill="white" transform="translate(29 29)"/>
        </clipPath>
    </defs>
</svg>
