<svg width="126" height="126" viewBox="0 0 126 126" fill="none"
    xmlns="http://www.w3.org/2000/svg">
    <circle cx="63" cy="63" r="63" fill="#0A0A0A"/>
    <g clip-path="url(#clip0_352_563)">
        <path fill-rule="evenodd" clip-rule="evenodd" d="M43.501 42.7436C44.1334 41.512 48.4919 37.4734 49.9259 36.7274L53.3246 42.6133C51.8963 43.4441 50.3888 44.9686 49.479 45.8222C47.9905 44.6467 45.9425 43.3053 43.501 42.7436Z" fill="#343434"/>
        <path d="M51.1533 34.77C51.4257 34.5149 52.0582 34.1976 52.4222 34.0767L56.6241 41.4833L55.428 42.2301L51.1533 34.77Z" fill="#FB8C49"/>
        <path d="M54.6616 33.9885C56.9589 32.5471 63.5539 31.0118 65.7105 31.0275C65.6919 31.3536 65.6952 37.2468 65.7105 37.7642C63.8195 37.6702 59.296 39.0586 58.131 39.8322C57.8184 39.3465 54.7334 34.1135 54.6616 33.9885Z" fill="#343434"/>
        <path d="M69.1643 29.9934H67.8359V38.5631H69.1643V29.9934Z" fill="#FB8C49"/>
        <path d="M71.3057 30.9335C73.853 30.8865 80.7449 32.8135 82.4483 34.0198L79.0727 39.9105C77.9788 39.1272 73.4936 37.9052 71.29 37.7328L71.3057 30.9335Z" fill="#343434"/>
        <path d="M84.7298 34.0354C85.0267 34.1607 85.6206 34.5211 85.9488 34.8187L81.6199 42.3074L80.354 41.5241L84.7298 34.0354Z" fill="#FB8C49"/>
        <path d="M87.0765 36.7576C90.0381 38.6851 93.2869 42.0972 95.3202 44.8224L89.5518 48.323C88.3363 46.5284 85.6179 43.6703 83.7393 42.5403L87.0765 36.7576Z" fill="#343434"/>
        <path fill-rule="evenodd" clip-rule="evenodd" d="M97.2432 46.1296L89.8394 50.4279L90.5245 51.6465L97.9284 47.2596C97.7294 46.8386 97.5305 46.462 97.2432 46.1296Z" fill="#FB8C49"/>
        <path fill-rule="evenodd" clip-rule="evenodd" d="M92.2261 52.9316C93.3532 55.7232 93.7068 57.8502 94.1931 60.797L101.022 60.7748C100.823 56.9197 99.6741 52.9316 98.0608 49.6525L92.2261 52.9316Z" fill="#343434"/>
        <path d="M102.017 62.7688H93.4639V64.2533H102.017V62.7688Z" fill="#FB8C49"/>
        <path fill-rule="evenodd" clip-rule="evenodd" d="M94.1707 66.203C94.2592 68.0641 92.9445 72.1538 92.1191 73.9209L97.9942 77.414C99.5445 74.5191 100.845 69.9252 101.066 66.2252L94.1707 66.203Z" fill="#343434"/>
        <path fill-rule="evenodd" clip-rule="evenodd" d="M90.5747 75.3643L89.8726 76.6371L97.2165 80.9416C97.4978 80.5656 97.701 80.1739 97.9667 79.6883L90.5747 75.3643Z" fill="#FB8C49"/>
        <path fill-rule="evenodd" clip-rule="evenodd" d="M89.6056 78.7639L95.3566 82.1166C94.0282 84.1533 89.7931 88.7749 87.1676 90.3886L83.7451 84.5606C85.4017 83.4796 87.8552 80.8946 89.6056 78.7639Z" fill="#343434"/>
        <path fill-rule="evenodd" clip-rule="evenodd" d="M81.6198 84.7329L80.4321 85.5319L84.7298 92.9893C85.1517 92.7386 85.5737 92.4566 85.98 92.1746L81.6198 84.7329Z" fill="#FB8C49"/>
        <path fill-rule="evenodd" clip-rule="evenodd" d="M79.0883 87.177L82.4327 92.9737C79.5259 94.4464 75.869 95.5587 71.3057 96.0757L71.29 89.292C74.2124 89.0727 77.4787 87.8977 79.0883 87.177Z" fill="#343434"/>
        <path d="M69.1331 88.3989H67.8047V96.9686H69.1331V88.3989Z" fill="#FB8C49"/>
        <path fill-rule="evenodd" clip-rule="evenodd" d="M72.9541 46.5948H68.4676L53.7262 66.9563L53.7041 71.3432L68.4897 71.321L68.5118 79.7182H72.932V71.3432H77.728V67.3994L72.9762 67.3551L72.9541 46.5948ZM68.4897 67.3773L68.5118 52.3997L57.8812 67.3551L68.4897 67.3773Z" fill="#FB8C49"/>
        <path fill-rule="evenodd" clip-rule="evenodd" d="M58.08 87.1627L54.6543 93.0784C57.439 94.4299 61.4172 95.6707 65.7048 96.0695V89.2897C63.6494 89.0017 59.7596 88.0933 58.08 87.1627Z" fill="#343434"/>
        <path fill-rule="evenodd" clip-rule="evenodd" d="M55.4501 84.6813L56.7761 85.4789L52.4001 93.0341L51.1846 92.2143L55.4501 84.6813Z" fill="#FB8C49"/>
        <path fill-rule="evenodd" clip-rule="evenodd" d="M42.4546 82.9752H51.5381C52.1128 83.6621 52.7537 84.1495 53.3725 84.5483L49.9027 90.4418C46.7864 88.049 43.4491 84.8363 42.4546 82.9752Z" fill="#343434"/>
        <path fill-rule="evenodd" clip-rule="evenodd" d="M39.2056 72.1187H44.1341C43.8247 71.3433 43.5816 70.3684 43.4932 69.748L39.2056 72.1187Z" fill="#343434"/>
        <path fill-rule="evenodd" clip-rule="evenodd" d="M50.6096 79.7182V75.5972L32.2657 75.575C35.8681 66.3138 50.902 68.004 50.7643 55.6124C50.7864 50.5387 46.985 45.5096 39.6032 45.5092C30.6523 45.4871 28.0444 51.2698 28.0665 57.9831H32.553C32.5309 52.998 34.8068 49.7702 39.3601 49.7853C42.9847 49.7632 45.9618 52.0894 45.9904 55.9004C46.1451 65.4719 27.4697 63.5886 27.4697 79.7182H50.6096Z" fill="#FB8C49"/>
        <path fill-rule="evenodd" clip-rule="evenodd" d="M37.747 53.1309C36.9514 54.2387 36.1336 58.249 36.1557 60.8191H37.9238C39.3162 60.1987 42.7082 58.4274 42.6755 55.5902C42.6755 53.6848 40.7969 52.8207 39.1173 52.7986L37.747 53.1309Z" fill="#343434"/>
    </g>
    <defs>
        <clipPath id="clip0_352_563">
            <rect width="78" height="67" fill="white" transform="translate(24 30)"/>
        </clipPath>
    </defs>
</svg>
