<svg width="33" height="35" viewBox="0 0 33 35" fill="none"
  xmlns="http://www.w3.org/2000/svg">
  <path d="M16.6957 0.291016C25.367 0.291016 32.4165 7.93916 32.4165 17.3467C32.4165 26.7543 25.367 34.4025 16.6957 34.4025C8.0244 34.4025 0.974853 26.7543 0.974853 17.3467C0.974853 7.93916 8.0244 0.291016 16.6957 0.291016ZM16.6957 10.0577C13.9816 10.0577 11.7642 12.4634 11.7642 15.4078C11.7642 18.3523 13.9817 20.758 16.6957 20.758C19.4096 20.758 21.6271 18.3523 21.6271 15.4078C21.6271 12.4634 19.4096 10.0577 16.6957 10.0577ZM25.3008 27.6879V26.898C25.3008 24.6358 23.6129 22.7688 21.4948 22.7688H11.8968C9.81167 22.7688 8.09083 24.6 8.09083 26.898V27.6879C10.3745 29.9141 13.3864 31.2786 16.6959 31.2786C20.0051 31.2786 23.0168 29.9141 25.3004 27.6879H25.3008Z" fill="#8F8FA8"/>
</svg>
